<svg id="logo" xmlns="http://www.w3.org/2000/svg" viewBox="0 0 248.77 48.07"><defs><style>.cls-1{fill:#fff;} .cls-2{fill:#95ae00;}</style></defs><g id="Grocerygo."><path class="cls-1" d="M-355.2,43.28a5.94,5.94,0,0,0-.75-1.65,4.8,4.8,0,0,0-1.19-1.23,5.18,5.18,0,0,0-1.58-.78,7.1,7.1,0,0,0-2-.26,6.31,6.31,0,0,0-3.53,1,6.51,6.51,0,0,0-2.35,2.9,11.23,11.23,0,0,0-.85,4.63,11.77,11.77,0,0,0,.83,4.66,6.47,6.47,0,0,0,2.36,2.92,6.35,6.35,0,0,0,3.59,1,7,7,0,0,0,3.21-.67,4.78,4.78,0,0,0,2.05-1.9,5.72,5.72,0,0,0,.71-2.9l1.12.17h-6.75V47h11v3.3a11.47,11.47,0,0,1-1.46,5.92,9.88,9.88,0,0,1-4,3.81,12.5,12.5,0,0,1-5.86,1.34,12.66,12.66,0,0,1-6.47-1.63,11.32,11.32,0,0,1-4.34-4.64A15.5,15.5,0,0,1-373,47.93a16.23,16.23,0,0,1,.93-5.68,12,12,0,0,1,2.6-4.24,11.19,11.19,0,0,1,3.9-2.64,12.54,12.54,0,0,1,4.82-.91,12.92,12.92,0,0,1,4.14.65,11.16,11.16,0,0,1,3.41,1.82,9.83,9.83,0,0,1,2.43,2.79,9.65,9.65,0,0,1,1.22,3.56Z" transform="translate(419.5 -25.44)"/><path class="cls-1" d="M-345.18,61V34.82h10.33a11.24,11.24,0,0,1,5.07,1,7.54,7.54,0,0,1,3.21,3,8.88,8.88,0,0,1,1.11,4.52,8.54,8.54,0,0,1-1.13,4.48,7.24,7.24,0,0,1-3.25,2.87,12,12,0,0,1-5.15,1h-6.91V47.27h6a6.91,6.91,0,0,0,2.63-.44,3.13,3.13,0,0,0,1.57-1.3,4.21,4.21,0,0,0,.51-2.16,4.39,4.39,0,0,0-.51-2.2,3.32,3.32,0,0,0-1.58-1.36,6.55,6.55,0,0,0-2.65-.47h-3.73V61ZM-331,49.08-324.53,61h-6.11L-337,49.08Z" transform="translate(419.5 -25.44)"/><path class="cls-1" d="M-297.49,47.91a15.22,15.22,0,0,1-1.62,7.29,11.24,11.24,0,0,1-4.4,4.58,12.42,12.42,0,0,1-6.24,1.58A12.38,12.38,0,0,1-316,59.77a11.16,11.16,0,0,1-4.38-4.59A15.22,15.22,0,0,1-322,47.91a15.28,15.28,0,0,1,1.61-7.29A11.2,11.2,0,0,1-316,36a12.48,12.48,0,0,1,6.27-1.58A12.42,12.42,0,0,1-303.51,36a11.24,11.24,0,0,1,4.4,4.58A15.16,15.16,0,0,1-297.49,47.91Zm-5.61,0a11.77,11.77,0,0,0-.83-4.68,6.38,6.38,0,0,0-2.32-2.89,6.19,6.19,0,0,0-3.5-1,6.16,6.16,0,0,0-3.5,1,6.31,6.31,0,0,0-2.32,2.89,11.77,11.77,0,0,0-.83,4.68,11.77,11.77,0,0,0,.83,4.68,6.31,6.31,0,0,0,2.32,2.89,6.24,6.24,0,0,0,3.5,1,6.27,6.27,0,0,0,3.5-1,6.38,6.38,0,0,0,2.32-2.89A11.77,11.77,0,0,0-303.1,47.91Z" transform="translate(419.5 -25.44)"/><path class="cls-1" d="M-270.3,44h-5.6a5.35,5.35,0,0,0-.63-1.93,4.86,4.86,0,0,0-1.21-1.45,5.21,5.21,0,0,0-1.71-.92,6.4,6.4,0,0,0-2.09-.32,6.25,6.25,0,0,0-3.54,1,6.59,6.59,0,0,0-2.34,2.91,11.7,11.7,0,0,0-.83,4.64,11.62,11.62,0,0,0,.84,4.7,6.39,6.39,0,0,0,2.34,2.88,6.3,6.3,0,0,0,3.49,1,7.19,7.19,0,0,0,2.07-.29,5.41,5.41,0,0,0,1.69-.87,4.82,4.82,0,0,0,1.24-1.38,5.78,5.78,0,0,0,.68-1.87l5.6,0a10.37,10.37,0,0,1-1.08,3.47,10.82,10.82,0,0,1-2.31,3,11,11,0,0,1-3.46,2.07,12.79,12.79,0,0,1-4.52.76,12.26,12.26,0,0,1-6.25-1.59,11.09,11.09,0,0,1-4.35-4.59,15.34,15.34,0,0,1-1.59-7.27,15.28,15.28,0,0,1,1.61-7.29A11.24,11.24,0,0,1-287.88,36a12.31,12.31,0,0,1,6.21-1.58,13.39,13.39,0,0,1,4.23.64A11,11,0,0,1-274,37a9.92,9.92,0,0,1,2.46,3A11.37,11.37,0,0,1-270.3,44Z" transform="translate(419.5 -25.44)"/><path class="cls-1" d="M-266.32,61V34.82h17.64v4.56h-12.11v6.24h11.2v4.56h-11.2v6.26h12.16V61Z" transform="translate(419.5 -25.44)"/><path class="cls-1" d="M-244.27,61V34.82h10.33a11.3,11.3,0,0,1,5.07,1,7.46,7.46,0,0,1,3.2,3,8.88,8.88,0,0,1,1.11,4.52,8.54,8.54,0,0,1-1.12,4.48,7.26,7.26,0,0,1-3.26,2.87,12,12,0,0,1-5.14,1H-241V47.27h6a6.93,6.93,0,0,0,2.64-.44,3.11,3.11,0,0,0,1.56-1.3,4.11,4.11,0,0,0,.52-2.16,4.29,4.29,0,0,0-.52-2.2,3.3,3.3,0,0,0-1.57-1.36,6.58,6.58,0,0,0-2.65-.47h-3.74V61Zm14.14-11.92,6.5,11.92h-6.11l-6.36-11.92Z" transform="translate(419.5 -25.44)"/><path class="cls-1" d="M-223.27,34.82h6.2l6,11.27h.26l6-11.27h6.2l-9.55,16.92V61h-5.5V51.74Z" transform="translate(419.5 -25.44)"/><path class="cls-1" d="M-190.72,63.11a1.2,1.2,0,0,1-.31,0,1.64,1.64,0,0,1-.71-.3c-.3.52-.62,1-1,1.55a16.05,16.05,0,0,1-1.14,1.47l3.84.75c1.13.21,2.38.4,3.72.6s2.66.34,3.93.46a10.48,10.48,0,0,0,2.67-.07,13.38,13.38,0,0,0,1.92-.48,7.29,7.29,0,0,0,1.53-.78c.39-.27.81-.6,1.28-1s1-.81,1.48-1.31a2.52,2.52,0,0,1,1.08-.68,1.32,1.32,0,0,1,.82,0,1.49,1.49,0,0,1,.68.54,1.72,1.72,0,0,1,.17.61,2.2,2.2,0,0,1-.12.65,2.06,2.06,0,0,1-.59.81,8.29,8.29,0,0,1-1.64,1.13,12.14,12.14,0,0,1-2,.83,13.71,13.71,0,0,1-2.8.56,35.29,35.29,0,0,1-3.66.09q-2-.06-4.44-.33-1.42-.17-3-.39l-2.84-.42-3-.48c-.34.38-.7.77-1.07,1.16s-.78.77-1.21,1.15a17.2,17.2,0,0,1-1.76,1.33c-.57.38-1.24.78-2,1.19a14.47,14.47,0,0,1-2.58,1,13,13,0,0,1-2.25.51,13.82,13.82,0,0,1-2.36.17,12.24,12.24,0,0,1-2.81-.34,5.28,5.28,0,0,1-2-.78,4.72,4.72,0,0,1-1.09-1,3,3,0,0,1-.51-1.22,3,3,0,0,1,.34-1.64,4.85,4.85,0,0,1,1.29-1.39,7.61,7.61,0,0,1,2.86-1.22,21.7,21.7,0,0,1,3.7-.65c1.21-.11,2.64-.18,4.32-.19a39.6,39.6,0,0,1,5.71.43,16.09,16.09,0,0,0,1.55-2.28c.44-.79.82-1.53,1.14-2.21s.69-1.59,1-2.38a8.22,8.22,0,0,1-1,1.19,7.18,7.18,0,0,1-1.19.95,4.63,4.63,0,0,1-1.67.68,2.76,2.76,0,0,1-1.54,0,2,2,0,0,1-1.13-.9,3.94,3.94,0,0,1-.49-1.83,9.22,9.22,0,0,1,.38-2.82,12.94,12.94,0,0,1,.85-2.37,17.31,17.31,0,0,1,1-1.82,12.7,12.7,0,0,1,1.16-1.53,9.92,9.92,0,0,1,1.26-1.25,6.7,6.7,0,0,1,1.41-.89,4.75,4.75,0,0,1,1.82-.47,2.92,2.92,0,0,1,1.66.3,2.38,2.38,0,0,1,1,1.07,3.8,3.8,0,0,1,.15,2.26,1.49,1.49,0,0,1,.65-.35.87.87,0,0,1,.65.08,1.17,1.17,0,0,1,.49.65,2.18,2.18,0,0,1,.07.85,3.75,3.75,0,0,1-.22.86c-.12.29-.22.52-.31.7-.36.73-.74,1.51-1.14,2.35s-.74,1.63-1,2.38a9.51,9.51,0,0,0-.54,2c-.08.57,0,.94.29,1.1a3.06,3.06,0,0,0,.78-.54,11.26,11.26,0,0,0,.83-.85c.28-.32.56-.66.83-1s.54-.73.79-1.09c.58-.86,1.16-1.79,1.73-2.79.45-.77.85-1.45,1.19-2.06a15.71,15.71,0,0,1,.85-1.37.19.19,0,0,1,.14-.1.35.35,0,0,1,.34,0c.11,0,.13.18.06.41-.2.56-.46,1.2-.78,1.9s-.63,1.28-1.07,2.08-1,1.65-1.61,2.58c-.39.57-.79,1.11-1.19,1.63a12.84,12.84,0,0,1-1.25,1.33,5.07,5.07,0,0,1-1.37.95A2.76,2.76,0,0,1-190.72,63.11Zm-17.48,9.25a12.27,12.27,0,0,0,3.38-.46,14.41,14.41,0,0,0,3-1.23,15.29,15.29,0,0,0,2.54-1.76,20.78,20.78,0,0,0,2.14-2.16c-.95-.07-2-.12-3.11-.14s-2.37,0-3.73,0a25.8,25.8,0,0,0-5.42.65,10.57,10.57,0,0,0-2.74,1,2.12,2.12,0,0,0-1.12,1.47,1.15,1.15,0,0,0,0,.37c0,.11.05.23.07.36a.66.66,0,0,0,.2.35,2.65,2.65,0,0,0,1.26.87,11.57,11.57,0,0,0,1.6.43A19.3,19.3,0,0,0-208.2,72.36Zm13.36-12.92a11.5,11.5,0,0,0,1.3-1.31c.4-.49.77-1,1.08-1.38s.71-1,1-1.5c.14-.34.3-.68.48-1s.36-.68.54-1,.4-.67.58-1a5.29,5.29,0,0,0,.07-.54,5.08,5.08,0,0,0,0-.78,2.85,2.85,0,0,0-.15-.75.65.65,0,0,0-.39-.44c-.53-.23-1.15,0-1.87.59A15.7,15.7,0,0,0-194.53,53a12.19,12.19,0,0,0-1.17,1.92,18.35,18.35,0,0,0-1,2.16,13.52,13.52,0,0,0-.57,1.9,2,2,0,0,0,0,1.19.5.5,0,0,0,.53.34,1.69,1.69,0,0,0,.66-.2,4.49,4.49,0,0,0,.42-.24,4.62,4.62,0,0,0,.4-.27A3,3,0,0,0-194.84,59.44Z" transform="translate(419.5 -25.44)"/><path class="cls-1" d="M-174.37,51.85a6.56,6.56,0,0,1,0,1.06q-.07.51-.24,1.29a10.63,10.63,0,0,1-.58,1.77,4.26,4.26,0,0,0,.85.05c.34,0,.68,0,1-.07s.67-.08,1-.13a5,5,0,0,0,.75-.19q.27-.08.3,0a.38.38,0,0,1,0,.24,4.3,4.3,0,0,1-.24.44c-.39.11-.78.21-1.19.3s-.82.13-1.29.17a8.22,8.22,0,0,1-1.57,0A11.19,11.19,0,0,1-177.22,59a11.2,11.2,0,0,1-1.6,1.45l-.78.54a7.07,7.07,0,0,1-1.43.72l-.58.13a4.78,4.78,0,0,1-.61.11,2.53,2.53,0,0,1-.72,0,7.78,7.78,0,0,1-.85-.19,2.5,2.5,0,0,1-.85-.42,1.4,1.4,0,0,1-.56-.83,5,5,0,0,1-.15-1.28,8.14,8.14,0,0,1,.17-1.55,13.7,13.7,0,0,1,.44-1.64,9.66,9.66,0,0,1,.43-1c.14-.31.27-.56.39-.77a3.07,3.07,0,0,1,.41-.61,3.55,3.55,0,0,1-.62-1.43,4.1,4.1,0,0,1,0-1.44,4.31,4.31,0,0,1,.44-1.31,4.17,4.17,0,0,1,.76-1,3.61,3.61,0,0,1,1.55-1,6.86,6.86,0,0,1,1.62-.31,6.73,6.73,0,0,1,1.73.17,5.89,5.89,0,0,1,1.78.75,4.27,4.27,0,0,1,1.13,1.11,4,4,0,0,1,.59,1.34A6.21,6.21,0,0,1-174.37,51.85Zm-8,9.35a.66.66,0,0,0,.41-.06l.37-.21.34-.27a11.3,11.3,0,0,0,1.81-1.9A16,16,0,0,0-178,56.48a9.44,9.44,0,0,1-1.27-.26c-.38-.1-.69-.2-.94-.29a3.47,3.47,0,0,1-.78-.34q-.37.64-.75,1.35c-.25.46-.47.92-.66,1.36a10.22,10.22,0,0,0-.46,1.25,2.82,2.82,0,0,0-.13,1A.66.66,0,0,0-182.36,61.2Zm1.87-6.42a4.69,4.69,0,0,0,.82.34,5.52,5.52,0,0,0,.92.3,9.12,9.12,0,0,0,1.19.21,14.61,14.61,0,0,0,.81-2.54,6.38,6.38,0,0,0,.14-2.22,3.06,3.06,0,0,0-.38-1.28,3.48,3.48,0,0,0-.66-.85,4.26,4.26,0,0,0-.7-.51,3,3,0,0,0-.54-.25,2.94,2.94,0,0,0-.9-.12,4.51,4.51,0,0,0-.73.08,4.88,4.88,0,0,0-.68.24,2.25,2.25,0,0,0-.75.65,3.84,3.84,0,0,0-.56,1,4.15,4.15,0,0,0-.27,1.24,3.25,3.25,0,0,0,.15,1.31c.32-.41.61-.76.87-1.06a6.52,6.52,0,0,1,.76-.74,2.75,2.75,0,0,1,.68-.51,3.48,3.48,0,0,1,.68-.29,1.14,1.14,0,0,1,.75,0,.84.84,0,0,1,.51.55,1.76,1.76,0,0,1,0,.88,4.4,4.4,0,0,1-.44,1.11,11.56,11.56,0,0,1-.73,1.14l-.41.56C-180.14,54.26-180.31,54.51-180.49,54.78Z" transform="translate(419.5 -25.44)"/><path class="cls-1" d="M-170.93,60.22a1.7,1.7,0,0,1-.28,1.1,1.32,1.32,0,0,1-1.12.63,1.22,1.22,0,0,1-.71-.07,1.49,1.49,0,0,1-.53-.34,1.05,1.05,0,0,1-.29-.74,1.53,1.53,0,0,1,.1-.84,2,2,0,0,1,.43-.59,1.41,1.41,0,0,1,.56-.33,1.67,1.67,0,0,1,.58,0A1.34,1.34,0,0,1-170.93,60.22Z" transform="translate(419.5 -25.44)"/></g><g id="Layer_2_Image" data-name="Layer 2 Image"><path class="cls-2" d="M-383,44a1.78,1.78,0,0,1-1.88.86,2.8,2.8,0,0,0-.41,0c-.1.82-.19,1.62-.28,2.42-.11,1-.21,2-.35,3a1.4,1.4,0,0,1-1.51,1.22,1.4,1.4,0,0,1-1.29-1.52c.1-1.24.26-2.48.4-3.72.1-.93.21-1.86.32-2.79A1.45,1.45,0,0,1-386.48,42h.63V39.16h-30.77V42h24.06a1.57,1.57,0,0,1,1.26.45,1.34,1.34,0,0,1,.3,1.48,1.38,1.38,0,0,1-1.21.92h-22c.12,1,.23,1.87.34,2.79.3,2.49.59,5,.89,7.47.08.6.13,1.2.25,1.8a2.8,2.8,0,0,0,2.3,2.15,3.82,3.82,0,0,0,.68,0h17.22a2.84,2.84,0,0,0,2.87-1.91,7.19,7.19,0,0,0,.2-.8,1.41,1.41,0,0,1,1.65-1.06A1.46,1.46,0,0,1-386.7,57a5.71,5.71,0,0,1-4.89,4.94.76.76,0,0,0-.16.06h-18.83l-.21-.06a5.49,5.49,0,0,1-4.55-3.72,12,12,0,0,1-.47-2.55c-.37-2.92-.7-5.84-1.06-8.77-.08-.66-.16-1.33-.25-2-1,.1-2,.07-2.38-1.12V37.43a1.61,1.61,0,0,1,1.78-1.15c1.45,0,2.9,0,4.35,0a.6.6,0,0,0,.56-.27l7.1-9.69a2.23,2.23,0,0,1,1.12-.89h.57c.17.09.34.16.5.26a1.44,1.44,0,0,1,.23,2.16l-5.94,8.1c-.07.09-.13.19-.21.3H-393c-.09-.12-.15-.22-.21-.31l-4.2-5.72c-.61-.82-1.22-1.64-1.81-2.47a1.41,1.41,0,0,1,.7-2.25l.12-.07h.57a2.28,2.28,0,0,1,1.11.9c2.35,3.22,4.72,6.43,7.07,9.65a.62.62,0,0,0,.58.3c1.38,0,2.76,0,4.13,0a1.9,1.9,0,0,1,1.88.87Z" transform="translate(419.5 -25.44)"/><path class="cls-2" d="M-408.37,52c0-.9,0-1.81,0-2.71A1.43,1.43,0,0,1-407,47.7a1.43,1.43,0,0,1,1.44,1.53v5.49A1.44,1.44,0,0,1-407,56.26a1.44,1.44,0,0,1-1.41-1.55C-408.38,53.79-408.37,52.88-408.37,52Z" transform="translate(419.5 -25.44)"/><path class="cls-2" d="M-399.81,52V54.7a1.45,1.45,0,0,1-1.41,1.56,1.46,1.46,0,0,1-1.45-1.57V49.24a1.44,1.44,0,0,1,1.43-1.54,1.44,1.44,0,0,1,1.43,1.54Z" transform="translate(419.5 -25.44)"/><path class="cls-2" d="M-394.11,52c0,.91,0,1.81,0,2.71a1.45,1.45,0,0,1-1.44,1.57A1.44,1.44,0,0,1-397,54.7V49.24a1.43,1.43,0,0,1,1.42-1.54,1.43,1.43,0,0,1,1.43,1.54C-394.1,50.15-394.11,51.07-394.11,52Z" transform="translate(419.5 -25.44)"/></g></svg>